<svg width="54" height="34" viewBox="0 0 54 34" fill="none" xmlns="http://www.w3.org/2000/svg">
<path d="M1.24316 31V23.8906H3.56738C4.33887 23.8906 4.91829 24.0501 5.30566 24.3691C5.69629 24.6882 5.8916 25.1602 5.8916 25.7852C5.8916 26.1172 5.7972 26.4118 5.6084 26.6689C5.4196 26.9229 5.16243 27.1198 4.83691 27.2598C5.22103 27.3672 5.52376 27.5723 5.74512 27.875C5.96973 28.1745 6.08203 28.5326 6.08203 28.9492C6.08203 29.5872 5.87533 30.0885 5.46191 30.4531C5.0485 30.8177 4.46419 31 3.70898 31H1.24316ZM2.18066 27.6748V30.2334H3.72852C4.16471 30.2334 4.50814 30.1211 4.75879 29.8965C5.0127 29.6686 5.13965 29.3561 5.13965 28.959C5.13965 28.1029 4.67415 27.6748 3.74316 27.6748H2.18066ZM2.18066 26.9229H3.59668C4.00684 26.9229 4.33398 26.8203 4.57812 26.6152C4.82552 26.4102 4.94922 26.1318 4.94922 25.7803C4.94922 25.3896 4.83529 25.1064 4.60742 24.9307C4.37956 24.7516 4.03288 24.6621 3.56738 24.6621H2.18066V26.9229ZM10.5938 31C10.5417 30.8958 10.4993 30.7103 10.4668 30.4434C10.0469 30.8796 9.54557 31.0977 8.96289 31.0977C8.44206 31.0977 8.014 30.9512 7.67871 30.6582C7.34668 30.362 7.18066 29.9876 7.18066 29.5352C7.18066 28.985 7.389 28.5586 7.80566 28.2559C8.22559 27.9499 8.81478 27.7969 9.57324 27.7969H10.4521V27.3818C10.4521 27.0661 10.3577 26.8154 10.1689 26.6299C9.98014 26.4411 9.70182 26.3467 9.33398 26.3467C9.01172 26.3467 8.74154 26.4281 8.52344 26.5908C8.30534 26.7536 8.19629 26.9505 8.19629 27.1816H7.28809C7.28809 26.918 7.38086 26.6641 7.56641 26.4199C7.75521 26.1725 8.00911 25.9772 8.32812 25.834C8.65039 25.6908 9.00358 25.6191 9.3877 25.6191C9.99642 25.6191 10.4733 25.7721 10.8184 26.0781C11.1634 26.3809 11.3424 26.7992 11.3555 27.333V29.7646C11.3555 30.2497 11.4173 30.6354 11.541 30.9219V31H10.5938ZM9.09473 30.3115C9.37793 30.3115 9.64648 30.2383 9.90039 30.0918C10.1543 29.9453 10.3382 29.7549 10.4521 29.5205V28.4365H9.74414C8.63737 28.4365 8.08398 28.7604 8.08398 29.4082C8.08398 29.6914 8.17839 29.9128 8.36719 30.0723C8.55599 30.2318 8.7985 30.3115 9.09473 30.3115ZM14.8906 30.3604C15.2129 30.3604 15.4945 30.2627 15.7354 30.0674C15.9762 29.8721 16.1097 29.6279 16.1357 29.335H16.9902C16.974 29.6377 16.8698 29.9258 16.6777 30.1992C16.4857 30.4727 16.2285 30.6908 15.9062 30.8535C15.5872 31.0163 15.2487 31.0977 14.8906 31.0977C14.1712 31.0977 13.5983 30.8584 13.1719 30.3799C12.7487 29.8981 12.5371 29.2406 12.5371 28.4072V28.2559C12.5371 27.7415 12.6315 27.2842 12.8203 26.8838C13.0091 26.4834 13.2793 26.1725 13.6309 25.9512C13.9857 25.7298 14.404 25.6191 14.8857 25.6191C15.4782 25.6191 15.9697 25.7965 16.3604 26.1514C16.7542 26.5062 16.9642 26.9668 16.9902 27.5332H16.1357C16.1097 27.1914 15.9795 26.9115 15.7451 26.6934C15.514 26.472 15.2275 26.3613 14.8857 26.3613C14.4268 26.3613 14.0703 26.5273 13.8164 26.8594C13.5658 27.1882 13.4404 27.665 13.4404 28.29V28.4609C13.4404 29.0697 13.5658 29.5384 13.8164 29.8672C14.0671 30.196 14.4251 30.3604 14.8906 30.3604ZM19.4805 28.5537L18.9141 29.1445V31H18.0107V23.5H18.9141V28.0361L19.3975 27.4551L21.043 25.7168H22.1416L20.0859 27.9238L22.3809 31H21.3213L19.4805 28.5537ZM22.7617 28.3145C22.7617 27.4909 22.9521 26.8366 23.333 26.3516C23.7139 25.8633 24.2184 25.6191 24.8467 25.6191C25.4912 25.6191 25.9941 25.847 26.3555 26.3027L26.3994 25.7168H27.2246V30.873C27.2246 31.5566 27.0212 32.0954 26.6143 32.4893C26.2106 32.8831 25.667 33.0801 24.9834 33.0801C24.6025 33.0801 24.2298 32.9987 23.8652 32.8359C23.5007 32.6732 23.2223 32.4502 23.0303 32.167L23.499 31.625C23.8864 32.1035 24.36 32.3428 24.9199 32.3428C25.3594 32.3428 25.7012 32.2191 25.9453 31.9717C26.1927 31.7243 26.3164 31.376 26.3164 30.9268V30.4727C25.9551 30.8893 25.4619 31.0977 24.8369 31.0977C24.2184 31.0977 23.7171 30.8486 23.333 30.3506C22.9521 29.8525 22.7617 29.1738 22.7617 28.3145ZM23.6699 28.417C23.6699 29.0127 23.792 29.4814 24.0361 29.8232C24.2803 30.1618 24.6221 30.3311 25.0615 30.3311C25.6312 30.3311 26.0495 30.0723 26.3164 29.5547V27.1426C26.0397 26.638 25.6247 26.3857 25.0713 26.3857C24.6318 26.3857 24.2884 26.5566 24.041 26.8984C23.7936 27.2402 23.6699 27.7464 23.6699 28.417ZM31.1455 26.5273C31.0088 26.5046 30.8607 26.4932 30.7012 26.4932C30.1087 26.4932 29.7067 26.7454 29.4951 27.25V31H28.5918V25.7168H29.4707L29.4854 26.3271C29.7816 25.8551 30.2015 25.6191 30.7451 25.6191C30.9209 25.6191 31.0544 25.6419 31.1455 25.6875V26.5273ZM31.6436 28.3096C31.6436 27.792 31.7445 27.3265 31.9463 26.9131C32.1514 26.4997 32.4346 26.1807 32.7959 25.9561C33.1605 25.7314 33.5755 25.6191 34.041 25.6191C34.7604 25.6191 35.3415 25.8682 35.7842 26.3662C36.2301 26.8643 36.4531 27.5267 36.4531 28.3535V28.417C36.4531 28.9313 36.3538 29.3936 36.1553 29.8037C35.96 30.2106 35.6784 30.528 35.3105 30.7559C34.946 30.9837 34.526 31.0977 34.0508 31.0977C33.3346 31.0977 32.7536 30.8486 32.3076 30.3506C31.8649 29.8525 31.6436 29.1934 31.6436 28.373V28.3096ZM32.5518 28.417C32.5518 29.0029 32.6868 29.4733 32.957 29.8281C33.2305 30.1829 33.5951 30.3604 34.0508 30.3604C34.5098 30.3604 34.8743 30.1813 35.1445 29.8232C35.4147 29.4619 35.5498 28.9574 35.5498 28.3096C35.5498 27.7301 35.4115 27.2614 35.1348 26.9033C34.8613 26.542 34.4967 26.3613 34.041 26.3613C33.5951 26.3613 33.2354 26.5387 32.9619 26.8936C32.6885 27.2484 32.5518 27.7562 32.5518 28.417ZM40.8477 30.4775C40.4961 30.891 39.9801 31.0977 39.2998 31.0977C38.7367 31.0977 38.307 30.9349 38.0107 30.6094C37.7178 30.2806 37.5697 29.7956 37.5664 29.1543V25.7168H38.4697V29.1299C38.4697 29.9307 38.7952 30.3311 39.4463 30.3311C40.1364 30.3311 40.5954 30.0739 40.8232 29.5596V25.7168H41.7266V31H40.8672L40.8477 30.4775ZM43.958 25.7168L43.9873 26.3809C44.391 25.873 44.9183 25.6191 45.5693 25.6191C46.6859 25.6191 47.249 26.249 47.2588 27.5088V31H46.3555V27.5039C46.3522 27.123 46.2643 26.8415 46.0918 26.6592C45.9225 26.4769 45.6572 26.3857 45.2959 26.3857C45.0029 26.3857 44.7458 26.4639 44.5244 26.6201C44.3031 26.7764 44.1305 26.9814 44.0068 27.2354V31H43.1035V25.7168H43.958ZM48.4014 28.3145C48.4014 27.5039 48.5934 26.8529 48.9775 26.3613C49.3617 25.8665 49.8646 25.6191 50.4863 25.6191C51.1048 25.6191 51.5947 25.8307 51.9561 26.2539V23.5H52.8594V31H52.0293L51.9854 30.4336C51.624 30.8763 51.1211 31.0977 50.4766 31.0977C49.8646 31.0977 49.3649 30.847 48.9775 30.3457C48.5934 29.8444 48.4014 29.1901 48.4014 28.3828V28.3145ZM49.3047 28.417C49.3047 29.016 49.4284 29.4847 49.6758 29.8232C49.9232 30.1618 50.265 30.3311 50.7012 30.3311C51.2741 30.3311 51.6924 30.0739 51.9561 29.5596V27.1328C51.6859 26.6348 51.2708 26.3857 50.7109 26.3857C50.2682 26.3857 49.9232 26.5566 49.6758 26.8984C49.4284 27.2402 49.3047 27.7464 49.3047 28.417Z" fill="#0078FF"/>
<path fill-rule="evenodd" clip-rule="evenodd" d="M21.1666 2.9168C21.0832 2.9168 20.9999 2.9168 21.0832 3.00012L20.4999 3.4168L20.4999 0.833491C20.5832 0.250133 21.2499 -0.166507 21.8332 0.166812L23.8332 1.50013L25.8332 0.166813C26.0832 0.000133408 26.4999 0.000133444 26.7499 0.166813L28.7499 1.50013L30.7498 0.166813C30.9998 0.000133838 31.4165 0.000133874 31.6665 0.166813L33.6665 1.50013L35.6665 0.166813C36.2498 -0.249826 36.9998 0.166814 36.9998 0.833492V3.4168L36.4164 3.00013C36.2498 2.91681 36.0831 2.91681 35.9164 3.00013L33.6665 4.50012L31.4165 3.00012C31.2498 2.9168 31.0832 2.9168 30.9165 3.00012L28.6665 4.50012L26.4165 3.00012C26.2498 2.9168 26.0832 2.9168 25.9165 3.00012L23.6665 4.50012L21.4166 3.00012C21.3332 2.9168 21.2499 2.9168 21.1666 2.9168ZM21.1666 7.08344C21.0833 7.08344 20.9999 7.08344 20.9166 7.16676L20.3333 7.5834L20.3333 4.41674L21.1666 3.83343L23.4166 5.33341C23.5833 5.41673 23.7499 5.41673 23.9166 5.33341L26.1666 3.83343L28.4165 5.33341C28.5832 5.41673 28.7499 5.41673 28.9165 5.33341L31.1665 3.83343L33.4165 5.33342C33.5832 5.41673 33.7498 5.41673 33.9165 5.33342L36.1665 3.83343L36.9998 4.41674V7.5834L36.4165 7.16676C36.2498 7.08344 36.0832 7.08344 35.9165 7.16676L33.6665 8.66675L31.4165 7.16676C31.2498 7.08344 31.0832 7.08344 30.9165 7.16676L28.6665 8.66675L26.4166 7.16676C26.2499 7.08344 26.0832 7.08344 25.9166 7.16676L23.6666 8.66675L21.4166 7.16676C21.3333 7.08344 21.2499 7.08344 21.1666 7.08344ZM21.1667 20H30.0833C27.75 18.5 27.1666 15.4167 28.6666 13.0834C28.9999 12.5001 29.4999 12.0001 30.0833 11.6667L21.1667 11.6667C18.8333 11.6667 17 13.5 17 15.8334C17 18.1667 18.8333 20 21.1667 20ZM32.8331 20C35.1665 20 36.9998 18.1667 36.9998 15.8334C36.9998 13.5 35.1665 11.6667 32.8331 11.6667C30.4998 11.6667 28.6665 13.5 28.6665 15.8334C28.6665 18.1667 30.4998 20 32.8331 20ZM32.8331 14.1667C33.7498 14.1667 34.4998 14.9167 34.4998 15.8334C34.4998 16.7501 33.7498 17.5 32.8331 17.5C31.9165 17.5 31.1665 16.75 31.1665 15.8334C31.1665 14.9167 31.9165 14.1667 32.8331 14.1667ZM32.8331 10.8334C34.4998 10.8334 36.0831 11.6667 36.9998 13.0834V8.5834L36.1665 8.00008L33.9165 9.50007C33.7498 9.58339 33.5832 9.58339 33.4165 9.50007L31.1665 8.00008L28.9165 9.50007C28.7499 9.58339 28.5832 9.58339 28.4165 9.50007L26.1666 8.00008L23.9166 9.50007C23.7499 9.58339 23.5833 9.58339 23.4166 9.50007L21.1666 8.00008L20.3333 8.5834L20.3333 10.8334L32.8331 10.8334Z" fill="#0078FF"/>
</svg>
