<svg width="26" height="26" viewBox="0 0 26 26" fill="none" xmlns="http://www.w3.org/2000/svg">
<path d="M21.5257 6.68916L16.7109 1.87434C16.6206 1.78406 16.4984 1.73328 16.3704 1.73328H6.25933C5.19766 1.73328 4.33344 2.59701 4.33344 3.65922V22.9185C4.33344 23.9807 5.19766 24.8444 6.25938 24.8444H19.7409C20.8025 24.8444 21.6668 23.9807 21.6668 22.9184V7.02956C21.6668 6.90168 21.616 6.77944 21.5257 6.68916Z" fill="#BEC6D2"/>
<path d="M16.852 3.37695L20.023 6.54796H17.8149C17.2836 6.54796 16.852 6.11584 16.852 5.58501V3.37695Z" fill="#E6E6E6"/>
<path d="M19.7409 23.8815H6.25946C5.72813 23.8815 5.29651 23.4493 5.29651 22.9185V3.65924C5.29651 3.1284 5.72817 2.69629 6.25946 2.69629H15.8891V5.58518C15.8891 6.64734 16.7533 7.51107 17.815 7.51107H20.7039V22.9185C20.7039 23.4493 20.2722 23.8815 19.7409 23.8815Z" fill="white"/>
<path d="M17.8148 7.51096C17.3632 7.51096 16.9528 7.34824 16.6239 7.08679L16.6122 7.08557L20.7037 11.1771V7.51096H17.8148Z" fill="url(#paint0_linear)"/>
<path d="M21.5257 6.68916L16.7109 1.87434C16.6206 1.78406 16.4984 1.73328 16.3704 1.73328H6.25933C5.19766 1.73328 4.33344 2.59701 4.33344 3.65922V22.9185C4.33344 23.9807 5.19766 24.8444 6.25938 24.8444H19.7409C20.8025 24.8444 21.6668 23.9807 21.6668 22.9184V7.02956C21.6668 6.90168 21.616 6.77944 21.5257 6.68916Z" fill="url(#paint1_linear)"/>
<path d="M17.3335 14.252H13.4817C13.2155 14.252 13.0002 14.4673 13.0002 14.7334V15.2149C13.0002 15.4811 13.2155 15.6964 13.4817 15.6964C13.7478 15.6964 13.9632 15.4811 13.9632 15.2149H14.9261V19.0668C14.66 19.0668 14.4446 19.2821 14.4446 19.5483C14.4446 19.8144 14.66 20.0298 14.9261 20.0298H15.8891C16.1552 20.0298 16.3706 19.8144 16.3706 19.5483C16.3706 19.2821 16.1552 19.0668 15.8891 19.0668V15.2149H16.852C16.852 15.4811 17.0674 15.6964 17.3335 15.6964C17.5997 15.6964 17.815 15.4811 17.815 15.2149V14.7334C17.815 14.4673 17.5997 14.252 17.3335 14.252Z" fill="#BEC6D2"/>
<path d="M12.037 19.0667V12.326H13.9629C13.9629 12.5922 14.1783 12.8075 14.4444 12.8075C14.7106 12.8075 14.9259 12.5922 14.9259 12.326V11.8445C14.9259 11.5784 14.7106 11.363 14.4444 11.363H8.66662C8.40048 11.363 8.18512 11.5784 8.18512 11.8445V12.326C8.18512 12.5922 8.40048 12.8075 8.66662 12.8075C8.93275 12.8075 9.14811 12.5922 9.14811 12.326H11.074V19.0667C10.8079 19.0667 10.5926 19.2821 10.5926 19.5482C10.5926 19.8144 10.8079 20.0297 11.074 20.0297H12.037C12.3031 20.0297 12.5185 19.8144 12.5185 19.5482C12.5184 19.2821 12.3031 19.0667 12.037 19.0667Z" fill="#BEC6D2"/>
<defs>
<linearGradient id="paint0_linear" x1="17.5288" y1="6.17003" x2="21.6202" y2="10.2615" gradientUnits="userSpaceOnUse">
<stop stop-opacity="0.1"/>
<stop offset="1" stop-opacity="0"/>
</linearGradient>
<linearGradient id="paint1_linear" x1="1.69983" y1="8.87951" x2="23.641" y2="19.1139" gradientUnits="userSpaceOnUse">
<stop stop-color="white" stop-opacity="0.2"/>
<stop offset="1" stop-color="white" stop-opacity="0"/>
</linearGradient>
</defs>
</svg>
