<svg width="40" height="35" viewBox="0 0 40 35" fill="none" xmlns="http://www.w3.org/2000/svg">
<path d="M6.37695 31.0674C6.13607 31.4124 5.79915 31.6712 5.36621 31.8438C4.93652 32.013 4.43522 32.0977 3.8623 32.0977C3.28288 32.0977 2.76855 31.9626 2.31934 31.6924C1.87012 31.4189 1.52181 31.0316 1.27441 30.5303C1.03027 30.029 0.904948 29.4479 0.898438 28.7871V28.167C0.898438 27.096 1.14746 26.266 1.64551 25.6768C2.14681 25.0876 2.84993 24.793 3.75488 24.793C4.49707 24.793 5.0944 24.9834 5.54688 25.3643C5.99935 25.7419 6.27604 26.279 6.37695 26.9756H5.43945C5.26367 26.0348 4.70378 25.5645 3.75977 25.5645C3.13151 25.5645 2.65462 25.7858 2.3291 26.2285C2.00684 26.668 1.84408 27.306 1.84082 28.1426V28.7236C1.84082 29.5212 2.02311 30.1559 2.3877 30.6279C2.75228 31.0967 3.24544 31.3311 3.86719 31.3311C4.21875 31.3311 4.52637 31.292 4.79004 31.2139C5.05371 31.1357 5.27181 31.0039 5.44434 30.8184V29.2217H3.79883V28.46H6.37695V31.0674ZM10.3564 27.5273C10.2197 27.5046 10.0716 27.4932 9.91211 27.4932C9.31966 27.4932 8.91764 27.7454 8.70605 28.25V32H7.80273V26.7168H8.68164L8.69629 27.3271C8.99251 26.8551 9.41243 26.6191 9.95605 26.6191C10.1318 26.6191 10.2653 26.6419 10.3564 26.6875V27.5273ZM14.2578 32C14.2057 31.8958 14.1634 31.7103 14.1309 31.4434C13.7109 31.8796 13.2096 32.0977 12.627 32.0977C12.1061 32.0977 11.6781 31.9512 11.3428 31.6582C11.0107 31.362 10.8447 30.9876 10.8447 30.5352C10.8447 29.985 11.0531 29.5586 11.4697 29.2559C11.8896 28.9499 12.4788 28.7969 13.2373 28.7969H14.1162V28.3818C14.1162 28.0661 14.0218 27.8154 13.833 27.6299C13.6442 27.4411 13.3659 27.3467 12.998 27.3467C12.6758 27.3467 12.4056 27.4281 12.1875 27.5908C11.9694 27.7536 11.8604 27.9505 11.8604 28.1816H10.9521C10.9521 27.918 11.0449 27.6641 11.2305 27.4199C11.4193 27.1725 11.6732 26.9772 11.9922 26.834C12.3145 26.6908 12.6676 26.6191 13.0518 26.6191C13.6605 26.6191 14.1374 26.7721 14.4824 27.0781C14.8275 27.3809 15.0065 27.7992 15.0195 28.333V30.7646C15.0195 31.2497 15.0814 31.6354 15.2051 31.9219V32H14.2578ZM12.7588 31.3115C13.042 31.3115 13.3105 31.2383 13.5645 31.0918C13.8184 30.9453 14.0023 30.7549 14.1162 30.5205V29.4365H13.4082C12.3014 29.4365 11.748 29.7604 11.748 30.4082C11.748 30.6914 11.8424 30.9128 12.0312 31.0723C12.2201 31.2318 12.4626 31.3115 12.7588 31.3115ZM20.8984 29.417C20.8984 30.221 20.7145 30.8688 20.3467 31.3604C19.9788 31.8519 19.4808 32.0977 18.8525 32.0977C18.2113 32.0977 17.7067 31.8942 17.3389 31.4873V34.0312H16.4355V26.7168H17.2607L17.3047 27.3027C17.6725 26.847 18.1836 26.6191 18.8379 26.6191C19.4727 26.6191 19.974 26.8584 20.3418 27.3369C20.7129 27.8154 20.8984 28.4811 20.8984 29.334V29.417ZM19.9951 29.3145C19.9951 28.7188 19.8682 28.2484 19.6143 27.9033C19.3604 27.5583 19.012 27.3857 18.5693 27.3857C18.0225 27.3857 17.6123 27.6283 17.3389 28.1133V30.6377C17.609 31.1195 18.0225 31.3604 18.5791 31.3604C19.012 31.3604 19.3555 31.1895 19.6094 30.8477C19.8665 30.5026 19.9951 29.9915 19.9951 29.3145ZM22.9541 27.3564C23.3545 26.8649 23.8753 26.6191 24.5166 26.6191C25.6331 26.6191 26.1963 27.249 26.2061 28.5088V32H25.3027V28.5039C25.2995 28.123 25.2116 27.8415 25.0391 27.6592C24.8698 27.4769 24.6045 27.3857 24.2432 27.3857C23.9502 27.3857 23.693 27.4639 23.4717 27.6201C23.2503 27.7764 23.0778 27.9814 22.9541 28.2354V32H22.0508V24.5H22.9541V27.3564ZM28.54 32H27.6367V26.7168H28.54V32ZM27.5635 25.3154C27.5635 25.1689 27.6074 25.0452 27.6953 24.9443C27.7865 24.8434 27.9199 24.793 28.0957 24.793C28.2715 24.793 28.4049 24.8434 28.4961 24.9443C28.5872 25.0452 28.6328 25.1689 28.6328 25.3154C28.6328 25.4619 28.5872 25.584 28.4961 25.6816C28.4049 25.7793 28.2715 25.8281 28.0957 25.8281C27.9199 25.8281 27.7865 25.7793 27.6953 25.6816C27.6074 25.584 27.5635 25.4619 27.5635 25.3154ZM32.1094 31.3604C32.4316 31.3604 32.7132 31.2627 32.9541 31.0674C33.195 30.8721 33.3285 30.6279 33.3545 30.335H34.209C34.1927 30.6377 34.0885 30.9258 33.8965 31.1992C33.7044 31.4727 33.4473 31.6908 33.125 31.8535C32.806 32.0163 32.4674 32.0977 32.1094 32.0977C31.39 32.0977 30.8171 31.8584 30.3906 31.3799C29.9674 30.8981 29.7559 30.2406 29.7559 29.4072V29.2559C29.7559 28.7415 29.8503 28.2842 30.0391 27.8838C30.2279 27.4834 30.498 27.1725 30.8496 26.9512C31.2044 26.7298 31.6227 26.6191 32.1045 26.6191C32.6969 26.6191 33.1885 26.7965 33.5791 27.1514C33.973 27.5062 34.1829 27.9668 34.209 28.5332H33.3545C33.3285 28.1914 33.1982 27.9115 32.9639 27.6934C32.7327 27.472 32.4463 27.3613 32.1045 27.3613C31.6455 27.3613 31.2891 27.5273 31.0352 27.8594C30.7845 28.1882 30.6592 28.665 30.6592 29.29V29.4609C30.6592 30.0697 30.7845 30.5384 31.0352 30.8672C31.2858 31.196 31.6439 31.3604 32.1094 31.3604ZM38.3008 30.5986C38.3008 30.3545 38.208 30.1657 38.0225 30.0322C37.8402 29.8955 37.5195 29.7783 37.0605 29.6807C36.6048 29.583 36.2419 29.4658 35.9717 29.3291C35.7048 29.1924 35.5062 29.0296 35.376 28.8408C35.249 28.652 35.1855 28.4274 35.1855 28.167C35.1855 27.734 35.3678 27.3678 35.7324 27.0684C36.1003 26.7689 36.569 26.6191 37.1387 26.6191C37.7376 26.6191 38.2227 26.7738 38.5938 27.083C38.9681 27.3923 39.1553 27.7878 39.1553 28.2695H38.2471C38.2471 28.0221 38.1413 27.8089 37.9297 27.6299C37.7214 27.4508 37.4577 27.3613 37.1387 27.3613C36.8099 27.3613 36.5527 27.4329 36.3672 27.5762C36.1816 27.7194 36.0889 27.9066 36.0889 28.1377C36.0889 28.3558 36.1751 28.5202 36.3477 28.6309C36.5202 28.7415 36.8311 28.8473 37.2803 28.9482C37.7327 29.0492 38.099 29.1696 38.3789 29.3096C38.6589 29.4495 38.8656 29.6188 38.999 29.8174C39.1357 30.0127 39.2041 30.252 39.2041 30.5352C39.2041 31.0072 39.0153 31.3864 38.6377 31.6729C38.2601 31.9561 37.7702 32.0977 37.168 32.0977C36.7448 32.0977 36.3704 32.0228 36.0449 31.873C35.7194 31.7233 35.4639 31.515 35.2783 31.248C35.096 30.9779 35.0049 30.6865 35.0049 30.374H35.9082C35.9245 30.6768 36.0449 30.9176 36.2695 31.0967C36.4974 31.2725 36.7969 31.3604 37.168 31.3604C37.5098 31.3604 37.7832 31.292 37.9883 31.1553C38.1966 31.0153 38.3008 30.8298 38.3008 30.5986Z" fill="#0078FF"/>
<path fill-rule="evenodd" clip-rule="evenodd" d="M16.4844 6.48438C17.7852 6.48438 18.9922 6.87103 20 7.53906C21.0078 6.87103 22.2148 6.48438 23.5156 6.48438C24.4096 6.48438 25.4724 6.707 26.4336 7.1875C26.4336 9.41788 25.1341 11.6736 22.9179 12.8125C23.2385 13.7744 22.2939 16.8675 20 18.3203C17.78 16.9142 16.7377 13.8454 17.0821 12.8125C14.8668 11.674 13.5664 9.41879 13.5664 7.1875C14.5317 6.70486 15.5949 6.48438 16.4844 6.48438ZM13.5664 7.1875C11.4687 8.26553 10 10.4337 10 12.9297C10 16.4804 12.9335 19.375 16.4844 19.375C17.7852 19.375 18.9922 18.9882 20 18.3203C21.0078 18.9882 22.2148 19.375 23.5156 19.375C27.0665 19.375 30 16.4804 30 12.9297C30 10.4337 28.5313 8.26553 26.4336 7.1875C26.4453 7.1524 26.4453 7.11716 26.4453 7.07031C26.4453 3.51944 23.5509 0.625 20 0.625C16.4491 0.625 13.5547 3.51944 13.5547 7.07031C13.5547 7.11716 13.5547 7.1524 13.5664 7.1875ZM23.5155 7.65625C24.1015 7.65625 24.6522 7.77344 25.1795 7.94922C24.9218 9.46091 24.0311 10.75 22.7772 11.5352C22.4959 10.293 21.8632 9.19144 20.9843 8.32428C21.746 7.91397 22.6014 7.65625 23.5155 7.65625ZM19.9999 13.5157C20.5976 13.5157 21.1718 13.4218 21.7225 13.2695C21.6288 14.6875 20.9843 15.9415 19.9999 16.832C19.0156 15.9415 18.371 14.6875 18.2773 13.2695C18.828 13.4218 19.4022 13.5157 19.9999 13.5157ZM14.8204 7.94922C15.3477 7.77344 15.8984 7.65625 16.4843 7.65625C17.3985 7.65625 18.2539 7.91397 19.0156 8.32428C18.1367 9.19144 17.5039 10.293 17.2226 11.5352C15.9687 10.75 15.0781 9.46091 14.8204 7.94922ZM18.3359 12.0508C18.8633 12.2265 19.414 12.3437 19.9999 12.3437C20.5858 12.3437 21.1365 12.2265 21.6639 12.0508C21.4648 10.8554 20.8671 9.80069 19.9999 9.02722C19.1328 9.80069 18.5351 10.8554 18.3359 12.0508Z" fill="#0078FF"/>
</svg>
