<svg width="25" height="34" viewBox="0 0 25 34" fill="none" xmlns="http://www.w3.org/2000/svg">
<path d="M2.16309 31H1.22559V23.8906H2.16309V31ZM5.85938 30.3604C6.18164 30.3604 6.46322 30.2627 6.7041 30.0674C6.94499 29.8721 7.07845 29.6279 7.10449 29.335H7.95898C7.94271 29.6377 7.83854 29.9258 7.64648 30.1992C7.45443 30.4727 7.19727 30.6908 6.875 30.8535C6.55599 31.0163 6.21745 31.0977 5.85938 31.0977C5.13997 31.0977 4.56706 30.8584 4.14062 30.3799C3.71745 29.8981 3.50586 29.2406 3.50586 28.4072V28.2559C3.50586 27.7415 3.60026 27.2842 3.78906 26.8838C3.97786 26.4834 4.24805 26.1725 4.59961 25.9512C4.95443 25.7298 5.37272 25.6191 5.85449 25.6191C6.44694 25.6191 6.93848 25.7965 7.3291 26.1514C7.72298 26.5062 7.93294 26.9668 7.95898 27.5332H7.10449C7.07845 27.1914 6.94824 26.9115 6.71387 26.6934C6.48275 26.472 6.19629 26.3613 5.85449 26.3613C5.39551 26.3613 5.03906 26.5273 4.78516 26.8594C4.53451 27.1882 4.40918 27.665 4.40918 28.29V28.4609C4.40918 29.0697 4.53451 29.5384 4.78516 29.8672C5.03581 30.196 5.39388 30.3604 5.85938 30.3604ZM8.73535 28.3096C8.73535 27.792 8.83626 27.3265 9.03809 26.9131C9.24316 26.4997 9.52637 26.1807 9.8877 25.9561C10.2523 25.7314 10.6673 25.6191 11.1328 25.6191C11.8522 25.6191 12.4333 25.8682 12.876 26.3662C13.3219 26.8643 13.5449 27.5267 13.5449 28.3535V28.417C13.5449 28.9313 13.4456 29.3936 13.2471 29.8037C13.0518 30.2106 12.7702 30.528 12.4023 30.7559C12.0378 30.9837 11.6178 31.0977 11.1426 31.0977C10.4264 31.0977 9.84538 30.8486 9.39941 30.3506C8.95671 29.8525 8.73535 29.1934 8.73535 28.373V28.3096ZM9.64355 28.417C9.64355 29.0029 9.77865 29.4733 10.0488 29.8281C10.3223 30.1829 10.6868 30.3604 11.1426 30.3604C11.6016 30.3604 11.9661 30.1813 12.2363 29.8232C12.5065 29.4619 12.6416 28.9574 12.6416 28.3096C12.6416 27.7301 12.5033 27.2614 12.2266 26.9033C11.9531 26.542 11.5885 26.3613 11.1328 26.3613C10.6868 26.3613 10.3271 26.5387 10.0537 26.8936C9.78027 27.2484 9.64355 27.7562 9.64355 28.417ZM15.5322 25.7168L15.5615 26.3809C15.9652 25.873 16.4925 25.6191 17.1436 25.6191C18.2601 25.6191 18.8232 26.249 18.833 27.5088V31H17.9297V27.5039C17.9264 27.123 17.8385 26.8415 17.666 26.6592C17.4967 26.4769 17.2314 26.3857 16.8701 26.3857C16.5771 26.3857 16.32 26.4639 16.0986 26.6201C15.8773 26.7764 15.7048 26.9814 15.5811 27.2354V31H14.6777V25.7168H15.5322ZM23.2715 29.5986C23.2715 29.3545 23.1787 29.1657 22.9932 29.0322C22.8109 28.8955 22.4902 28.7783 22.0312 28.6807C21.5755 28.583 21.2126 28.4658 20.9424 28.3291C20.6755 28.1924 20.4769 28.0296 20.3467 27.8408C20.2197 27.652 20.1562 27.4274 20.1562 27.167C20.1562 26.734 20.3385 26.3678 20.7031 26.0684C21.071 25.7689 21.5397 25.6191 22.1094 25.6191C22.7083 25.6191 23.1934 25.7738 23.5645 26.083C23.9388 26.3923 24.126 26.7878 24.126 27.2695H23.2178C23.2178 27.0221 23.112 26.8089 22.9004 26.6299C22.6921 26.4508 22.4284 26.3613 22.1094 26.3613C21.7806 26.3613 21.5234 26.4329 21.3379 26.5762C21.1523 26.7194 21.0596 26.9066 21.0596 27.1377C21.0596 27.3558 21.1458 27.5202 21.3184 27.6309C21.4909 27.7415 21.8018 27.8473 22.251 27.9482C22.7035 28.0492 23.0697 28.1696 23.3496 28.3096C23.6296 28.4495 23.8363 28.6188 23.9697 28.8174C24.1064 29.0127 24.1748 29.252 24.1748 29.5352C24.1748 30.0072 23.986 30.3864 23.6084 30.6729C23.2308 30.9561 22.7409 31.0977 22.1387 31.0977C21.7155 31.0977 21.3411 31.0228 21.0156 30.873C20.6901 30.7233 20.4346 30.515 20.249 30.248C20.0667 29.9779 19.9756 29.6865 19.9756 29.374H20.8789C20.8952 29.6768 21.0156 29.9176 21.2402 30.0967C21.4681 30.2725 21.7676 30.3604 22.1387 30.3604C22.4805 30.3604 22.7539 30.292 22.959 30.1553C23.1673 30.0153 23.2715 29.8298 23.2715 29.5986Z" fill="#0078FF"/>
<path d="M22.566 8.68362C22.9596 8.29996 23.0986 7.73688 22.9288 7.21346C22.7586 6.69003 22.3153 6.31638 21.7706 6.23708L16.928 5.53344C16.7217 5.5034 16.5435 5.37405 16.4514 5.18702L14.2864 0.799359C14.0433 0.306368 13.5499 0 13.0001 0C12.4506 0 11.9572 0.306368 11.7141 0.799359L9.54873 5.18742C9.45662 5.37445 9.27801 5.5038 9.07176 5.53384L4.22915 6.23748C3.6849 6.31638 3.24116 6.69043 3.07096 7.21386C2.90115 7.73728 3.04012 8.30036 3.43379 8.68402L6.9376 12.0993C7.08698 12.2451 7.15546 12.4549 7.12022 12.66L6.29363 17.4826C6.22034 17.9071 6.33167 18.32 6.6064 18.6456C7.03331 19.153 7.77861 19.3076 8.37452 18.9944L12.7053 16.7173C12.8863 16.6223 13.1142 16.6231 13.2948 16.7173L17.626 18.9944C17.8367 19.1053 18.0613 19.1614 18.2932 19.1614C18.7165 19.1614 19.1178 18.9732 19.3937 18.6456C19.6689 18.32 19.7798 17.9063 19.7065 17.4826L18.8795 12.66C18.8443 12.4545 18.9128 12.2451 19.0621 12.0993L22.566 8.68362Z" fill="#0078FF"/>
</svg>
