<svg width="24" height="35" viewBox="0 0 24 35" fill="none" xmlns="http://www.w3.org/2000/svg">
<path d="M2.52246 24.8906L4.84668 30.6914L7.1709 24.8906H8.38672V32H7.44922V29.2314L7.53711 26.2432L5.20312 32H4.48535L2.15625 26.2578L2.24902 29.2314V32H1.31152V24.8906H2.52246ZM9.66113 29.3096C9.66113 28.792 9.76204 28.3265 9.96387 27.9131C10.1689 27.4997 10.4521 27.1807 10.8135 26.9561C11.1781 26.7314 11.5931 26.6191 12.0586 26.6191C12.778 26.6191 13.359 26.8682 13.8018 27.3662C14.2477 27.8643 14.4707 28.5267 14.4707 29.3535V29.417C14.4707 29.9313 14.3714 30.3936 14.1729 30.8037C13.9775 31.2106 13.696 31.528 13.3281 31.7559C12.9635 31.9837 12.5436 32.0977 12.0684 32.0977C11.3522 32.0977 10.7712 31.8486 10.3252 31.3506C9.88249 30.8525 9.66113 30.1934 9.66113 29.373V29.3096ZM10.5693 29.417C10.5693 30.0029 10.7044 30.4733 10.9746 30.8281C11.248 31.1829 11.6126 31.3604 12.0684 31.3604C12.5273 31.3604 12.8919 31.1813 13.1621 30.8232C13.4323 30.4619 13.5674 29.9574 13.5674 29.3096C13.5674 28.7301 13.429 28.2614 13.1523 27.9033C12.8789 27.542 12.5143 27.3613 12.0586 27.3613C11.6126 27.3613 11.2529 27.5387 10.9795 27.8936C10.7061 28.2484 10.5693 28.7562 10.5693 29.417ZM18.1572 27.5273C18.0205 27.5046 17.8724 27.4932 17.7129 27.4932C17.1204 27.4932 16.7184 27.7454 16.5068 28.25V32H15.6035V26.7168H16.4824L16.4971 27.3271C16.7933 26.8551 17.2132 26.6191 17.7568 26.6191C17.9326 26.6191 18.0661 26.6419 18.1572 26.6875V27.5273ZM21.0869 32.0977C20.3708 32.0977 19.7881 31.8633 19.3389 31.3945C18.8896 30.9225 18.665 30.2926 18.665 29.5049V29.3389C18.665 28.8148 18.7643 28.3477 18.9629 27.9375C19.1647 27.5241 19.4447 27.2018 19.8027 26.9707C20.1641 26.7363 20.5547 26.6191 20.9746 26.6191C21.6615 26.6191 22.1953 26.8454 22.5762 27.2979C22.957 27.7503 23.1475 28.3981 23.1475 29.2412V29.6172H19.5684C19.5814 30.138 19.7327 30.5596 20.0225 30.8818C20.3154 31.2008 20.6865 31.3604 21.1357 31.3604C21.4548 31.3604 21.7249 31.2952 21.9463 31.165C22.1676 31.0348 22.3613 30.8623 22.5273 30.6475L23.0791 31.0771C22.6364 31.7575 21.9723 32.0977 21.0869 32.0977ZM20.9746 27.3613C20.61 27.3613 20.304 27.4948 20.0566 27.7617C19.8092 28.0254 19.6562 28.3965 19.5977 28.875H22.2441V28.8066C22.2181 28.3477 22.0944 27.9928 21.873 27.7422C21.6517 27.4883 21.3522 27.3613 20.9746 27.3613Z" fill="#7F8F95"/>
<rect x="1" width="21" height="21" rx="4" fill="#0078FF"/>
<path d="M5.99994 13C4.89722 13 4 12.1028 4 11.0001C4 9.89734 4.89722 9.00011 5.99994 9.00011C7.10266 9.00011 7.99989 9.89734 7.99989 11.0001C7.99989 12.1028 7.10266 13 5.99994 13Z" fill="white"/>
<path d="M16.9995 13C15.8967 13 14.9995 12.1028 14.9995 11.0001C14.9995 9.89734 15.8967 9.00011 16.9995 9.00011C18.1022 9.00011 18.9994 9.89734 18.9994 11.0001C18.9994 12.1028 18.1022 13 16.9995 13Z" fill="white"/>
<path d="M11.4999 13C10.3972 13 9.5 12.1028 9.5 11.0001C9.5 9.89734 10.3972 9.00011 11.4999 9.00011C12.6027 9.00011 13.4999 9.89734 13.4999 11.0001C13.4999 12.1028 12.6027 13 11.4999 13Z" fill="white"/>
</svg>
