<svg width="165" height="102" viewBox="0 0 165 102" fill="none" xmlns="http://www.w3.org/2000/svg">
<path d="M82.4726 102C128.021 102 164.945 99.8442 164.945 97.185C164.945 94.5257 128.021 92.3699 82.4726 92.3699C36.9242 92.3699 0 94.5257 0 97.185C0 99.8442 36.9242 102 82.4726 102Z" fill="#F7F7F7"/>
<path d="M107.075 17.7752C107.451 16.7506 108.127 15.8638 109.016 15.2313C109.905 14.5988 110.965 14.2504 112.056 14.2319H146.106C146.694 14.2099 147.28 14.3173 147.823 14.5465C148.365 14.7757 148.851 15.1211 149.245 15.5584C149.639 15.9957 149.933 16.5142 150.105 17.0773C150.277 17.6403 150.323 18.2343 150.241 18.8173L141.444 92.6211C141.257 93.8775 140.63 95.0266 139.674 95.8627C138.718 96.6989 137.495 97.1676 136.225 97.1852H28.1842C27.5978 97.2075 27.0136 97.1011 26.4728 96.8733C25.932 96.6456 25.4477 96.3021 25.054 95.867C24.6602 95.4319 24.3666 94.9158 24.1939 94.355C24.0211 93.7942 23.9733 93.2023 24.0539 92.6211L31.4296 30.6125C31.6163 29.356 32.2439 28.207 33.2 27.3708C34.1562 26.5346 35.3787 26.0659 36.6488 26.0484H95.4417C97.9893 26.0049 100.464 25.1914 102.541 23.7147C104.617 22.238 106.198 20.1674 107.075 17.7752Z" fill="#E8E8E8"/>
<path d="M82.5322 22.5688C82.5385 22.0753 82.6441 21.588 82.8426 21.1362C83.0411 20.6843 83.3284 20.2769 83.6876 19.9384C84.0468 19.5999 84.4704 19.3371 84.9332 19.1656C85.3961 18.9942 85.8887 18.9176 86.3817 18.9405H120.432C121.75 18.9911 123.014 19.478 124.026 20.3249C125.037 21.1717 125.739 22.3306 126.021 23.6194L139.475 92.5273C139.977 95.1093 138.292 97.2063 135.71 97.2063H27.6696C25.0834 97.2063 22.5653 95.1093 22.0761 92.5273L10.9786 35.7208C10.4766 33.1389 12.161 31.0419 14.743 31.0419H73.5401C78.6444 31.0419 82.3578 27.5284 82.5322 22.5688Z" fill="white"/>
<path opacity="0.2" d="M82.5322 22.5688C82.5385 22.0753 82.6441 21.588 82.8426 21.1362C83.0411 20.6843 83.3284 20.2769 83.6876 19.9384C84.0468 19.5999 84.4704 19.3371 84.9332 19.1656C85.3961 18.9942 85.8887 18.9176 86.3817 18.9405H120.432C121.75 18.9911 123.014 19.478 124.026 20.3249C125.037 21.1717 125.739 22.3306 126.021 23.6194L139.475 92.5273C139.977 95.1093 138.292 97.2063 135.71 97.2063H27.6696C25.0834 97.2063 22.5653 95.1093 22.0761 92.5273L10.9786 35.7208C10.4766 33.1389 12.161 31.0419 14.743 31.0419H73.5401C78.6444 31.0419 82.3578 27.5284 82.5322 22.5688Z" fill="black"/>
<path d="M135.057 20.6742C135.057 18.799 135.286 17.3055 135.743 16.1937C136.2 15.082 137.034 13.9903 138.244 12.9188C139.468 11.8338 140.281 10.9565 140.684 10.2867C141.088 9.6036 141.29 8.88699 141.29 8.1369C141.29 5.87322 140.241 4.74137 138.143 4.74137C137.148 4.74137 136.348 5.04945 135.743 5.6656C135.151 6.26835 134.842 7.10552 134.815 8.17708H128.966C128.993 5.61872 129.82 3.61623 131.447 2.16962C133.087 0.723002 135.319 -0.000305176 138.143 -0.000305176C140.994 -0.000305176 143.206 0.689515 144.779 2.06916C146.352 3.4354 147.139 5.37092 147.139 7.8757C147.139 9.01424 146.883 10.0925 146.372 11.1105C145.861 12.1151 144.967 13.2335 143.69 14.4658L142.056 16.0129C141.034 16.9907 140.449 18.1359 140.301 19.4486L140.221 20.6742H135.057ZM134.472 26.8424C134.472 25.945 134.775 25.2083 135.38 24.6323C135.998 24.043 136.785 23.7483 137.74 23.7483C138.694 23.7483 139.474 24.043 140.079 24.6323C140.698 25.2083 141.007 25.945 141.007 26.8424C141.007 27.7265 140.705 28.4565 140.1 29.0324C139.508 29.6084 138.721 29.8964 137.74 29.8964C136.758 29.8964 135.965 29.6084 135.36 29.0324C134.768 28.4565 134.472 27.7265 134.472 26.8424Z" fill="#CCCCCC"/>
</svg>
