<svg width="47" height="35" viewBox="0 0 47 35" fill="none" xmlns="http://www.w3.org/2000/svg">
<path d="M5.85352 25.6621H3.56836V32H2.63574V25.6621H0.355469V24.8906H5.85352V25.6621ZM8.4707 32.0977C7.75456 32.0977 7.17188 31.8633 6.72266 31.3945C6.27344 30.9225 6.04883 30.2926 6.04883 29.5049V29.3389C6.04883 28.8148 6.14811 28.3477 6.34668 27.9375C6.5485 27.5241 6.82845 27.2018 7.18652 26.9707C7.54785 26.7363 7.93848 26.6191 8.3584 26.6191C9.04525 26.6191 9.5791 26.8454 9.95996 27.2979C10.3408 27.7503 10.5312 28.3981 10.5312 29.2412V29.6172H6.95215C6.96517 30.138 7.11654 30.5596 7.40625 30.8818C7.69922 31.2008 8.07031 31.3604 8.51953 31.3604C8.83854 31.3604 9.10872 31.2952 9.33008 31.165C9.55143 31.0348 9.74512 30.8623 9.91113 30.6475L10.4629 31.0771C10.0202 31.7575 9.35612 32.0977 8.4707 32.0977ZM8.3584 27.3613C7.99382 27.3613 7.68783 27.4948 7.44043 27.7617C7.19303 28.0254 7.04004 28.3965 6.98145 28.875H9.62793V28.8066C9.60189 28.3477 9.47819 27.9928 9.25684 27.7422C9.03548 27.4883 8.736 27.3613 8.3584 27.3613ZM12.4307 26.7168L12.4551 27.3027C12.8424 26.847 13.3649 26.6191 14.0225 26.6191C14.7614 26.6191 15.2643 26.9023 15.5312 27.4688C15.707 27.2148 15.9349 27.0098 16.2148 26.8535C16.498 26.6973 16.8317 26.6191 17.2158 26.6191C18.3747 26.6191 18.9639 27.2327 18.9834 28.46V32H18.0801V28.5137C18.0801 28.1361 17.9938 27.8545 17.8213 27.6689C17.6488 27.4801 17.359 27.3857 16.9521 27.3857C16.6169 27.3857 16.3385 27.4867 16.1172 27.6885C15.8958 27.887 15.7673 28.1556 15.7314 28.4941V32H14.8232V28.5381C14.8232 27.7699 14.4473 27.3857 13.6953 27.3857C13.1029 27.3857 12.6976 27.638 12.4795 28.1426V32H11.5762V26.7168H12.4307ZM24.8135 29.417C24.8135 30.221 24.6296 30.8688 24.2617 31.3604C23.8939 31.8519 23.3958 32.0977 22.7676 32.0977C22.1263 32.0977 21.6217 31.8942 21.2539 31.4873V34.0312H20.3506V26.7168H21.1758L21.2197 27.3027C21.5876 26.847 22.0986 26.6191 22.7529 26.6191C23.3877 26.6191 23.889 26.8584 24.2568 27.3369C24.6279 27.8154 24.8135 28.4811 24.8135 29.334V29.417ZM23.9102 29.3145C23.9102 28.7188 23.7832 28.2484 23.5293 27.9033C23.2754 27.5583 22.9271 27.3857 22.4844 27.3857C21.9375 27.3857 21.5273 27.6283 21.2539 28.1133V30.6377C21.5241 31.1195 21.9375 31.3604 22.4941 31.3604C22.9271 31.3604 23.2705 31.1895 23.5244 30.8477C23.7816 30.5026 23.9102 29.9915 23.9102 29.3145ZM26.9473 32H26.0439V24.5H26.9473V32ZM31.6592 32C31.6071 31.8958 31.5648 31.7103 31.5322 31.4434C31.1123 31.8796 30.611 32.0977 30.0283 32.0977C29.5075 32.0977 29.0794 31.9512 28.7441 31.6582C28.4121 31.362 28.2461 30.9876 28.2461 30.5352C28.2461 29.985 28.4544 29.5586 28.8711 29.2559C29.291 28.9499 29.8802 28.7969 30.6387 28.7969H31.5176V28.3818C31.5176 28.0661 31.4232 27.8154 31.2344 27.6299C31.0456 27.4411 30.7673 27.3467 30.3994 27.3467C30.0771 27.3467 29.807 27.4281 29.5889 27.5908C29.3708 27.7536 29.2617 27.9505 29.2617 28.1816H28.3535C28.3535 27.918 28.4463 27.6641 28.6318 27.4199C28.8206 27.1725 29.0745 26.9772 29.3936 26.834C29.7158 26.6908 30.069 26.6191 30.4531 26.6191C31.0618 26.6191 31.5387 26.7721 31.8838 27.0781C32.2288 27.3809 32.4079 27.7992 32.4209 28.333V30.7646C32.4209 31.2497 32.4827 31.6354 32.6064 31.9219V32H31.6592ZM30.1602 31.3115C30.4434 31.3115 30.7119 31.2383 30.9658 31.0918C31.2197 30.9453 31.4036 30.7549 31.5176 30.5205V29.4365H30.8096C29.7028 29.4365 29.1494 29.7604 29.1494 30.4082C29.1494 30.6914 29.2438 30.9128 29.4326 31.0723C29.6214 31.2318 29.8639 31.3115 30.1602 31.3115ZM35.0625 25.4375V26.7168H36.0488V27.415H35.0625V30.6914C35.0625 30.903 35.1064 31.0625 35.1943 31.1699C35.2822 31.2741 35.432 31.3262 35.6436 31.3262C35.7477 31.3262 35.891 31.3066 36.0732 31.2676V32C35.8356 32.0651 35.6045 32.0977 35.3799 32.0977C34.9762 32.0977 34.6719 31.9756 34.4668 31.7314C34.2617 31.4873 34.1592 31.1406 34.1592 30.6914V27.415H33.1973V26.7168H34.1592V25.4375H35.0625ZM39.3008 32.0977C38.5846 32.0977 38.002 31.8633 37.5527 31.3945C37.1035 30.9225 36.8789 30.2926 36.8789 29.5049V29.3389C36.8789 28.8148 36.9782 28.3477 37.1768 27.9375C37.3786 27.5241 37.6585 27.2018 38.0166 26.9707C38.3779 26.7363 38.7686 26.6191 39.1885 26.6191C39.8753 26.6191 40.4092 26.8454 40.79 27.2979C41.1709 27.7503 41.3613 28.3981 41.3613 29.2412V29.6172H37.7822C37.7952 30.138 37.9466 30.5596 38.2363 30.8818C38.5293 31.2008 38.9004 31.3604 39.3496 31.3604C39.6686 31.3604 39.9388 31.2952 40.1602 31.165C40.3815 31.0348 40.5752 30.8623 40.7412 30.6475L41.293 31.0771C40.8503 31.7575 40.1862 32.0977 39.3008 32.0977ZM39.1885 27.3613C38.8239 27.3613 38.5179 27.4948 38.2705 27.7617C38.0231 28.0254 37.8701 28.3965 37.8115 28.875H40.458V28.8066C40.432 28.3477 40.3083 27.9928 40.0869 27.7422C39.8656 27.4883 39.5661 27.3613 39.1885 27.3613ZM45.4873 30.5986C45.4873 30.3545 45.3945 30.1657 45.209 30.0322C45.0267 29.8955 44.7061 29.7783 44.2471 29.6807C43.7913 29.583 43.4284 29.4658 43.1582 29.3291C42.8913 29.1924 42.6927 29.0296 42.5625 28.8408C42.4355 28.652 42.3721 28.4274 42.3721 28.167C42.3721 27.734 42.5544 27.3678 42.9189 27.0684C43.2868 26.7689 43.7555 26.6191 44.3252 26.6191C44.9242 26.6191 45.4092 26.7738 45.7803 27.083C46.1546 27.3923 46.3418 27.7878 46.3418 28.2695H45.4336C45.4336 28.0221 45.3278 27.8089 45.1162 27.6299C44.9079 27.4508 44.6442 27.3613 44.3252 27.3613C43.9964 27.3613 43.7393 27.4329 43.5537 27.5762C43.3682 27.7194 43.2754 27.9066 43.2754 28.1377C43.2754 28.3558 43.3617 28.5202 43.5342 28.6309C43.7067 28.7415 44.0176 28.8473 44.4668 28.9482C44.9193 29.0492 45.2855 29.1696 45.5654 29.3096C45.8454 29.4495 46.0521 29.6188 46.1855 29.8174C46.3223 30.0127 46.3906 30.252 46.3906 30.5352C46.3906 31.0072 46.2018 31.3864 45.8242 31.6729C45.4466 31.9561 44.9567 32.0977 44.3545 32.0977C43.9313 32.0977 43.557 32.0228 43.2314 31.873C42.9059 31.7233 42.6504 31.515 42.4648 31.248C42.2826 30.9779 42.1914 30.6865 42.1914 30.374H43.0947C43.111 30.6768 43.2314 30.9176 43.4561 31.0967C43.6839 31.2725 43.9834 31.3604 44.3545 31.3604C44.6963 31.3604 44.9697 31.292 45.1748 31.1553C45.3831 31.0153 45.4873 30.8298 45.4873 30.5986Z" fill="#0078FF"/>
<path fill-rule="evenodd" clip-rule="evenodd" d="M34 6.48438L24.0011 0L14 6.48438L24.0011 13.0408L34 6.48438ZM34 13.5157L32.4239 12.4402L24.0011 17.9595L15.6026 12.4321L14 13.5157L24.0011 20L34 13.5157ZM32.4241 8.92474L34 10L24.0011 16.5564L14 10L15.6028 8.9165L24.0011 14.4438L32.4241 8.92474Z" fill="#0078FF"/>
</svg>
